<svg id="Capa_1" enable-background="new 0 0 512 512" height="512" viewBox="0 0 512 512" width="512" xmlns="http://www.w3.org/2000/svg"><g><g><g><g><g><g><g><path d="m395.19 277.479c-4.232 0-8.09-2.764-9.457-6.763-1.365-3.991-.024-8.554 3.322-11.138 3.218-2.485 7.713-2.765 11.215-.703 3.634 2.139 5.573 6.502 4.706 10.633-.961 4.579-5.098 7.971-9.786 7.971z"/></g></g></g></g></g><path d="m479.786 98.474h-.871v-33.24c0-5.522-4.477-10-10-10h-52.085c-5.523 0-10 4.478-10 10v33.239h-3.851l-12.67-47.584c-1.166-4.379-5.131-7.427-9.663-7.427h-249.292c-4.532 0-8.497 3.048-9.663 7.427l-12.67 47.584h-76.807c-17.763.001-32.214 14.481-32.214 32.28v305.505c0 17.799 14.451 32.279 32.214 32.279h447.572c17.763 0 32.214-14.48 32.214-32.279v-305.505c0-17.799-14.451-32.279-32.214-32.279zm-52.956-23.24h32.085v23.239h-32.085zm-394.616 43.24h84.493c4.532 0 8.497-3.048 9.664-7.427l12.669-47.584h233.919l12.67 47.584c1.166 4.379 5.131 7.427 9.663 7.427h84.494c6.735 0 12.214 5.509 12.214 12.279v43.636h-119.369c-27.765-34.756-70.336-56.094-116.631-56.094-47.08 0-89.136 21.922-116.497 56.094h-119.503v-43.636c0-6.771 5.479-12.279 12.214-12.279zm447.572 330.063h-447.572c-6.735 0-12.214-5.509-12.214-12.279v-241.869h105.978c-12.198 21.613-19.163 46.554-19.163 73.091 0 82.261 66.924 149.185 149.185 149.185 63.621 0 120.305-40.382 141.049-100.478l.143-.414c1.789-5.225-.997-10.911-6.222-12.699-5.226-1.788-10.911.997-12.7 6.223l-.123.356c-17.965 52.044-67.052 87.012-122.147 87.012-71.232 0-129.185-57.952-129.185-129.185s57.953-129.185 129.185-129.185c55.261 0 104.396 35.106 122.266 87.358 1.787 5.226 7.473 8.012 12.698 6.226 5.226-1.787 8.013-7.473 6.226-12.698-2.974-8.696-6.698-16.98-11.084-24.792h105.894v241.869c0 6.77-5.479 12.279-12.214 12.279z"/><g><g><g><g><g><path d="m77.235 416.664c-18.282 0-33.155-14.873-33.155-33.155 0-18.281 14.873-33.154 33.155-33.154s33.155 14.873 33.155 33.154c0 18.282-14.873 33.155-33.155 33.155zm0-46.31c-7.253 0-13.155 5.901-13.155 13.154 0 7.254 5.901 13.155 13.155 13.155s13.155-5.901 13.155-13.155c0-7.252-5.901-13.154-13.155-13.154z"/></g></g></g></g></g><g><g><g><g><g><path d="m256 367.55c-55.179 0-100.07-44.892-100.07-100.07s44.891-100.07 100.07-100.07 100.07 44.891 100.07 100.069-44.891 100.071-100.07 100.071zm0-180.14c-44.151 0-80.07 35.919-80.07 80.069 0 44.151 35.919 80.07 80.07 80.07s80.07-35.919 80.07-80.07c0-44.15-35.919-80.069-80.07-80.069z"/></g></g></g></g></g></g></g></svg>