<svg id="Capa_1" enable-background="new 0 0 512 512" height="512" viewBox="0 0 512 512" width="512" xmlns="http://www.w3.org/2000/svg"><g><g><g><g><g><g><g><path d="m289.988 284.272h-37.869c-5.523 0-10-4.477-10-10v-57.672c0-5.523 4.477-10 10-10s10 4.477 10 10v47.673h27.869c5.523 0 10 4.477 10 10s-4.477 9.999-10 9.999z"/></g></g></g></g></g><g><g><g><g><g><g><path d="m358.38 266.18c-4.232 0-8.106-2.77-9.47-6.779-1.361-4.001.016-8.587 3.384-11.151 3.196-2.433 7.609-2.704 11.091-.712 3.556 2.035 5.539 6.236 4.855 10.277-.806 4.764-5.019 8.365-9.86 8.365z"/></g></g></g></g></g></g><g><g><g><g><path d="m358.378 363.121h-204.756c-5.523 0-10-4.477-10-10v-194.242c0-5.523 4.477-10 10-10h204.756c5.523 0 10 4.477 10 10v51.915c0 5.523-4.477 10-10 10s-10-4.477-10-10v-41.915h-184.756v174.242h184.756v-41.915c0-5.523 4.477-10 10-10s10 4.477 10 10v51.915c0 5.523-4.477 10-10 10z"/></g></g></g></g><path d="m374.836 100.976h-20.687l-9.984-92.054c-.551-5.076-4.836-8.922-9.942-8.922h-156.446c-5.105 0-9.391 3.846-9.942 8.922l-9.984 92.054h-20.687c-23.009 0-41.729 18.72-41.729 41.729v226.591c0 23.009 18.719 41.729 41.729 41.729h20.687l9.984 92.054c.551 5.076 4.836 8.922 9.942 8.922h156.446c5.105 0 9.391-3.846 9.942-8.922l9.984-92.054h20.687c23.009 0 41.729-18.72 41.729-41.729v-226.591c-.001-23.01-18.72-41.729-41.729-41.729zm-188.085-80.976h138.498l8.783 80.976h-156.064zm138.498 472h-138.498l-8.783-80.976h156.063zm71.315-122.705c0 11.981-9.748 21.729-21.729 21.729h-237.671c-11.981 0-21.729-9.748-21.729-21.729v-226.59c0-11.981 9.748-21.729 21.729-21.729h237.672c11.981 0 21.729 9.748 21.729 21.729v226.59z"/></g></g></svg>